<svg width="23" height="18" viewBox="0 0 23 18" fill="none" xmlns="http://www.w3.org/2000/svg">
<path d="M3.33094 7.88702C5.64154 6.01502 8.52618 4.99556 11.4999 5.00002C14.4735 4.9956 17.358 6.01467 19.6689 7.88602L17.7829 10.22C16.0057 8.78045 13.7871 7.99653 11.4999 8.00002C9.11994 8.00002 6.93294 8.83202 5.21594 10.22L3.33094 7.88602V7.88702ZM6.47294 11.777C7.89475 10.6248 9.6699 9.99734 11.4999 10C13.4039 10 15.1529 10.665 16.5269 11.776L14.6419 14.11C13.7532 13.3901 12.6437 12.9982 11.4999 13C10.3099 13 9.21694 13.416 8.35794 14.11L6.47294 11.776V11.777ZM9.61494 15.667C10.148 15.2348 10.8137 14.9993 11.4999 15C12.2139 15 12.8699 15.25 13.3849 15.666L11.4999 18L9.61494 15.667Z" fill="white"/>
</svg>
