<svg width="24" height="18" viewBox="0 0 24 18" fill="none" xmlns="http://www.w3.org/2000/svg">
<path d="M0.690941 3.99702C3.88989 1.40534 7.88347 -0.00607102 12.0004 1.96299e-05C16.2853 1.96299e-05 20.2201 1.49702 23.3099 3.99702L21.425 6.33002C18.7591 4.17062 15.4311 2.99475 12.0004 3.00002C8.4306 3.00002 5.15074 4.24802 2.57586 6.33002L0.690941 3.99702ZM3.8318 7.88702C6.1423 6.01502 9.02681 4.99556 12.0004 5.00002C14.9739 4.9956 17.8583 6.01467 20.1691 7.88602L18.2832 10.22C16.506 8.78044 14.2875 7.99653 12.0004 8.00002C9.62055 8.00002 7.43364 8.83202 5.71672 10.22L3.8318 7.88602V7.88702ZM6.97366 11.777C8.39541 10.6248 10.1705 9.99734 12.0004 10C13.9044 10 15.6533 10.665 17.0272 11.776L15.1423 14.11C14.2536 13.3901 13.1441 12.9982 12.0004 13C10.8105 13 9.71754 13.416 8.85858 14.11L6.97366 11.776V11.777ZM10.1155 15.667C10.6486 15.2348 11.3142 14.9993 12.0004 15C12.7144 15 13.3704 15.25 13.8854 15.666L12.0004 18L10.1155 15.667Z" fill="white"/>
</svg>
