<svg width="230" height="317" viewBox="0 0 230 317" fill="none" xmlns="http://www.w3.org/2000/svg">
<path d="M50.192 1.38658C37.9223 6.48878 27.6811 13.2009 19.2456 21.6468C11.5029 29.3991 6.48118 37.102 3.14164 46.3157C0.865806 52.5572 0 57.808 0 65.0155C0 71.4551 0.445272 74.7245 2.22636 80.7431C7.54488 98.898 22.4862 115.022 43.6614 125.449C47.0256 127.109 52.171 129.363 53.4079 129.734C53.5316 129.784 52.7894 128.991 51.7505 128C39.7776 116.607 30.6495 101.003 26.84 85.4243C25.2321 78.836 24.6136 74.0558 24.4157 66.9969C24.0447 52.4086 27.3347 38.2661 34.1622 25.2629C38.3676 17.2381 43.1171 10.7489 49.7962 3.91291C51.8989 1.7581 53.5563 -0.000425231 53.5068 0.0243427C53.4573 0.0243427 51.9731 0.643542 50.192 1.38658Z" fill="#FF6600"/>
<path d="M179.966 3.88814C186.645 10.7489 191.394 17.2381 195.6 25.2629C204.456 42.1299 207.424 61.4984 204.035 80.2478C200.869 97.8578 191.345 115.319 178.012 128C176.973 128.991 176.23 129.784 176.354 129.734C177.591 129.363 182.736 127.109 186.101 125.449C207.276 115.022 222.217 98.898 227.536 80.7431C229.317 74.7245 229.762 71.4551 229.762 65.0155C229.762 61.226 229.638 59.0464 229.317 56.9659C226.62 39.6778 216.33 24.3465 199.286 12.1606C193.918 8.32161 185.952 3.98722 179.224 1.23797L176.156 -0.000425231L179.966 3.88814Z" fill="#FF6600"/>
<path d="M74.2873 20.3849C47.7689 33.6853 36.9339 60.7814 48.5605 84.5834C52.7905 93.2027 60.0633 101.005 69.0677 106.577C71.0714 107.816 77.5526 111.209 77.9237 111.209C77.9979 111.209 77.3794 110.466 76.5384 109.525C70.1809 102.59 64.8376 93.0293 62.166 83.8156C61.2507 80.6453 60.3849 76.3605 59.9396 72.8187C59.4449 69.0539 59.5191 59.865 60.0633 56.1003C62.0176 42.4284 67.2619 30.9113 76.1426 20.7316C77.1815 19.5428 77.9979 18.5768 77.9731 18.5768C77.9237 18.5768 76.2663 19.3942 74.2873 20.3849Z" fill="black"/>
<path d="M153.618 20.7564C162.499 30.9113 167.743 42.4284 169.698 56.1003C170.242 59.865 170.316 69.0539 169.821 72.8187C169.376 76.3605 168.51 80.6453 167.595 83.8156C164.923 93.0293 159.58 102.59 153.223 109.525C152.381 110.466 151.763 111.209 151.837 111.209C152.208 111.209 158.689 107.816 160.693 106.577C169.698 101.005 176.97 93.2027 181.2 84.5834C188.993 68.6576 186.841 50.577 175.486 36.3107C170.044 29.45 162.474 23.58 154.014 19.6666L151.738 18.6016L153.618 20.7564Z" fill="black"/>
<path d="M112.655 46.2915C106.075 47.5299 100.558 53.9695 100.533 60.4835C100.533 62.6136 100.954 64.2978 102.092 66.6012C103.848 70.2173 107.237 73.1152 111.17 74.3288L112.531 74.7499L112.605 98.7996L112.655 122.874L111.789 123.642C111.294 124.063 110.725 124.732 110.527 125.128C110.329 125.524 109.365 129.215 108.425 133.326C107.485 137.438 106.545 141.475 106.347 142.292C106.149 143.109 102.982 156.88 99.2966 172.881C95.6107 188.881 92.3701 202.875 92.1228 203.964C91.8754 205.054 90.7622 209.834 89.6738 214.615C88.5606 219.37 83.1679 242.825 77.6514 266.702C71.2197 294.59 67.6328 310.59 67.6328 311.408C67.6575 315.767 72.4071 318.392 76.2167 316.138C77.3793 315.47 78.6162 313.785 78.8883 312.547C78.9872 312.151 79.1357 311.829 79.2346 311.829C79.4078 311.829 97.5155 309.228 130.96 304.398C137.565 303.432 144.467 302.442 146.298 302.169C148.128 301.922 149.662 301.748 149.711 301.798C149.761 301.847 150.404 304.448 151.121 307.593C151.863 310.714 152.63 313.612 152.828 314.008C153.768 315.841 156.291 317.179 158.419 316.981C160.991 316.733 163.317 314.429 163.539 311.878C163.638 310.962 161.09 299.618 151.369 257.463C144.615 228.163 138.53 201.859 137.887 199.011C137.219 196.138 133.558 180.212 129.723 163.593C125.864 146.973 122.352 131.716 121.906 129.685C121.016 125.747 120.348 124.236 119.086 123.345L118.344 122.824V98.7005V74.6013L120.744 73.4372C122.673 72.496 123.465 71.9263 124.9 70.465C127.67 67.6662 129.229 64.0501 129.229 60.4835C129.204 53.3503 122.847 46.6382 115.722 46.2172C114.658 46.1429 113.273 46.1924 112.655 46.2915ZM117.231 160.62C117.973 163.89 118.938 168.001 119.334 169.785C123.663 188.46 126.903 202.602 126.829 202.602C126.631 202.602 107.311 192.1 107.039 191.853C106.817 191.655 106.866 191.135 107.213 189.723C107.46 188.707 108.35 184.843 109.192 181.178C110.033 177.487 111.047 173.153 111.418 171.518C111.814 169.884 112.877 165.227 113.817 161.165C114.881 156.558 115.574 153.958 115.673 154.23C115.772 154.478 116.464 157.351 117.231 160.62ZM117.602 200.943C126.607 205.822 127.967 206.615 127.992 207.06C127.992 207.135 125.172 207.977 121.733 208.967C118.32 209.958 112.407 211.667 108.598 212.757C104.813 213.872 101.671 214.714 101.597 214.664C101.548 214.59 102.512 210.082 103.774 204.633L106.05 194.701L106.817 195.097C107.237 195.32 112.086 197.946 117.602 200.943ZM131.035 220.485C132.346 226.206 133.409 230.961 133.36 230.986C133.335 231.036 129.402 229.896 124.652 228.46C119.878 227.023 112.432 224.769 108.078 223.481C103.725 222.169 100.138 221.079 100.088 221.054C99.9892 220.98 100.583 218.33 100.756 218.156C100.855 218.057 106.371 216.398 113.026 214.466C119.705 212.534 125.815 210.776 126.631 210.528C127.448 210.28 128.239 210.057 128.363 210.057C128.511 210.032 129.699 214.738 131.035 220.485ZM115.92 228.831C135.413 234.701 134.275 234.33 134.374 234.825C134.424 235.122 132.593 235.717 125.221 237.773C112.679 241.24 107.683 242.627 100.41 244.658C97.0208 245.624 94.2007 246.367 94.176 246.367C94.176 246.342 94.4481 244.98 94.8439 243.345C95.2149 241.711 96.3281 236.906 97.2929 232.695C99.4203 223.581 99.3213 223.903 99.445 223.903C99.4945 223.903 106.891 226.132 115.92 228.831ZM136.65 244.757C137.491 248.472 138.728 253.897 139.421 256.819C140.088 259.717 140.583 262.144 140.558 262.194C140.459 262.268 93.3844 250.503 93.2359 250.355C92.8649 249.983 94.1265 249.364 96.6992 248.671C98.3318 248.249 101.572 247.358 103.873 246.689C109.266 245.178 116.39 243.197 123.91 241.116C127.176 240.2 130.911 239.135 132.197 238.763C133.484 238.392 134.671 238.07 134.819 238.045C134.968 238.02 135.759 240.893 136.65 244.757ZM117.107 259.37C130.367 262.689 141.301 265.488 141.4 265.637C141.498 265.76 141.498 265.959 141.4 266.033C141.301 266.132 139.223 266.603 136.774 267.098C134.325 267.618 128.536 268.807 123.91 269.748C119.284 270.714 111.22 272.373 105.976 273.438C100.731 274.503 94.4975 275.791 92.1228 276.287C86.9032 277.352 87.0516 277.327 87.1011 277.03C87.1258 276.881 88.0411 272.869 89.1295 268.113C90.2427 263.333 91.4549 258.082 91.8259 256.398C92.197 254.739 92.5928 253.376 92.7412 253.376C92.8649 253.376 103.848 256.076 117.107 259.37ZM145.234 282.033C146.891 289.216 148.202 295.135 148.153 295.209C148.054 295.309 145.605 294.764 132.568 291.767C127.819 290.677 122.921 289.562 121.684 289.265C120.472 288.993 115.574 287.878 110.799 286.788C106.05 285.699 98.7524 284.014 94.5965 283.073C85.7405 281.042 86.1858 281.166 86.1858 280.77C86.1858 280.547 87.0763 280.25 88.7337 279.928C94.7202 278.714 103.824 276.832 109.439 275.668C112.778 274.974 118.221 273.86 121.56 273.166C124.9 272.497 130.738 271.284 134.547 270.491C138.357 269.674 141.647 269.03 141.845 269.005C142.166 268.98 142.834 271.63 145.234 282.033ZM90.9354 285.178C93.5575 285.798 98.2081 286.863 101.276 287.556C104.343 288.25 107.509 288.993 108.326 289.166C109.142 289.364 113.496 290.38 117.973 291.395C125.766 293.179 140.781 296.597 146.273 297.86C148.771 298.429 149.217 298.603 148.994 298.801C148.944 298.85 144.566 299.519 139.247 300.287C125.691 302.219 93.1617 306.925 85.9632 307.99C82.6484 308.46 79.8778 308.832 79.853 308.782C79.7788 308.733 84.4047 288.398 85.32 284.634C85.3942 284.336 85.6168 284.089 85.8147 284.089C86.0126 284.089 88.3132 284.584 90.9354 285.178Z" fill="black"/>
</svg>
