<svg width="353" height="487" viewBox="0 0 353 487" fill="none" xmlns="http://www.w3.org/2000/svg">
<g clip-path="url(#clip0_172_1683)">
<path d="M77.1143 2.13098C58.2633 9.96939 42.5288 20.2811 29.5687 33.2563C17.6728 45.1661 9.95758 56.9998 4.82677 71.1546C1.33021 80.7433 0 88.81 0 99.8827C0 109.776 0.684109 114.798 3.42054 124.045C11.5918 151.936 34.5475 176.707 67.0807 192.726C72.2495 195.275 80.1547 198.738 82.0551 199.309C82.2451 199.385 81.1049 198.167 79.5086 196.645C61.1137 179.142 47.0895 155.17 41.2366 131.236C38.7662 121.115 37.816 113.771 37.512 102.927C36.9419 80.515 41.9967 58.7882 52.4863 38.8117C58.9474 26.4833 66.2445 16.5141 76.5062 6.01213C79.7367 2.70174 82.2831 0.00015652 82.2071 0.038207C82.1311 0.038207 79.8507 0.989469 77.1143 2.13098Z" fill="black"/>
<path d="M276.494 5.97408C286.756 16.5141 294.053 26.4833 300.514 38.8117C314.12 64.724 318.681 94.4795 313.474 123.284C308.609 150.338 293.977 177.163 273.492 196.645C271.895 198.167 270.755 199.385 270.945 199.309C272.845 198.738 280.751 195.275 285.92 192.726C318.453 176.707 341.408 151.936 349.58 124.045C352.316 114.798 353 109.776 353 99.8827C353 94.061 352.81 90.7125 352.316 87.5163C348.173 60.957 332.363 37.4038 306.177 18.6829C297.929 12.7851 285.692 6.12629 275.354 1.90268L270.641 0.00015652L276.494 5.97408Z" fill="black"/>
<path d="M114.132 31.3155C73.39 51.7487 56.7433 93.3759 74.6061 129.942C81.1052 143.184 92.279 155.17 106.113 163.731C109.192 165.634 119.149 170.847 119.719 170.847C119.833 170.847 118.883 169.705 117.591 168.259C107.823 157.605 99.6141 142.918 95.5095 128.763C94.1032 123.892 92.773 117.31 92.0889 111.868C91.3288 106.085 91.4428 91.968 92.279 86.1843C95.2814 65.1805 103.339 47.487 116.983 31.8482C118.579 30.0218 119.833 28.5379 119.795 28.5379C119.719 28.5379 117.173 29.7935 114.132 31.3155Z" fill="black"/>
<path d="M236.017 31.8863C249.662 47.487 257.719 65.1805 260.721 86.1843C261.557 91.968 261.671 106.085 260.911 111.868C260.227 117.31 258.897 123.892 257.491 128.763C253.386 142.918 245.177 157.605 235.409 168.259C234.117 169.705 233.167 170.847 233.281 170.847C233.851 170.847 243.809 165.634 246.887 163.731C260.721 155.17 271.895 143.184 278.394 129.942C290.366 105.476 287.059 77.6991 269.615 55.782C261.253 45.242 249.624 36.2241 236.625 30.2121L233.129 28.5759L236.017 31.8863Z" fill="black"/>
<path d="M173.08 71.1163C162.97 73.0188 154.495 82.9119 154.457 92.9192C154.457 96.1915 155.103 98.779 156.851 102.318C159.55 107.873 164.756 112.325 170.799 114.189L172.89 114.836L173.004 151.783L173.08 188.768L171.749 189.948C170.989 190.595 170.115 191.622 169.811 192.231C169.507 192.84 168.025 198.509 166.581 204.826C165.136 211.142 163.692 217.344 163.388 218.6C163.084 219.856 158.219 241.012 152.556 265.592C146.894 290.173 141.915 311.671 141.535 313.346C141.155 315.02 139.444 322.364 137.772 329.707C136.062 337.013 127.776 373.047 119.301 409.728C109.42 452.572 103.909 477.153 103.909 478.409C103.947 485.106 111.244 489.139 117.097 485.676C118.883 484.649 120.783 482.062 121.201 480.159C121.353 479.55 121.582 479.056 121.734 479.056C122 479.056 149.82 475.06 201.204 467.64C211.352 466.156 221.955 464.634 224.768 464.216C227.58 463.835 229.937 463.569 230.013 463.645C230.089 463.721 231.077 467.717 232.179 472.549C233.319 477.343 234.497 481.795 234.802 482.404C236.246 485.22 240.122 487.275 243.391 486.97C247.344 486.59 250.916 483.051 251.258 479.132C251.41 477.724 247.496 460.297 232.559 395.535C222.184 350.521 212.834 310.111 211.846 305.736C210.82 301.322 205.195 276.855 199.304 251.323C193.375 225.792 187.978 202.352 187.294 199.232C185.926 193.182 184.9 190.861 182.961 189.491L181.821 188.692V151.631V114.608L185.508 112.82C188.472 111.374 189.688 110.499 191.893 108.254C196.149 103.954 198.544 98.3984 198.544 92.9192C198.506 81.9606 188.738 71.6489 177.792 71.0021C176.158 70.8879 174.03 70.9641 173.08 71.1163ZM180.111 246.757C181.251 251.78 182.733 258.096 183.341 260.836C189.992 289.526 194.971 311.253 194.857 311.253C194.553 311.253 164.87 295.12 164.452 294.739C164.11 294.435 164.186 293.636 164.718 291.467C165.098 289.907 166.467 283.971 167.759 278.339C169.051 272.67 170.609 266.011 171.179 263.5C171.787 260.988 173.422 253.835 174.866 247.594C176.5 240.517 177.564 236.522 177.716 236.94C177.868 237.321 178.933 241.735 180.111 246.757ZM180.681 308.704C194.515 316.199 196.605 317.417 196.643 318.102C196.643 318.216 192.311 319.51 187.028 321.032C181.783 322.554 172.7 325.179 166.847 326.854C161.032 328.566 156.205 329.86 156.091 329.784C156.015 329.669 157.497 322.744 159.436 314.373L162.932 299.115L164.11 299.724C164.756 300.066 172.206 304.099 180.681 308.704ZM201.318 338.725C203.333 347.515 204.967 354.821 204.891 354.859C204.853 354.935 198.81 353.185 191.513 350.978C184.177 348.771 172.738 345.308 166.049 343.329C159.36 341.313 153.849 339.639 153.773 339.601C153.621 339.486 154.533 335.415 154.799 335.149C154.951 334.996 163.426 332.447 173.65 329.479C183.911 326.511 193.299 323.81 194.553 323.429C195.807 323.049 197.024 322.706 197.214 322.706C197.442 322.668 199.266 329.898 201.318 338.725ZM178.096 351.548C208.045 360.566 206.297 359.996 206.449 360.757C206.525 361.213 203.713 362.126 192.387 365.285C173.118 370.612 165.44 372.743 154.267 375.863C149.06 377.347 144.727 378.488 144.689 378.488C144.689 378.45 145.107 376.357 145.715 373.846C146.285 371.335 147.996 363.953 149.478 357.484C152.746 343.482 152.594 343.976 152.784 343.976C152.86 343.976 164.224 347.401 178.096 351.548ZM209.946 376.015C211.238 381.722 213.138 390.055 214.202 394.545C215.228 398.997 215.989 402.726 215.951 402.802C215.798 402.917 143.473 384.843 143.245 384.614C142.675 384.044 144.613 383.092 148.566 382.027C151.074 381.38 156.053 380.01 159.588 378.983C167.873 376.662 178.819 373.618 190.372 370.421C195.389 369.014 201.128 367.377 203.104 366.807C205.081 366.236 206.905 365.741 207.133 365.703C207.361 365.665 208.577 370.079 209.946 376.015ZM179.921 398.465C200.292 403.563 217.091 407.863 217.243 408.091C217.395 408.282 217.395 408.586 217.243 408.7C217.091 408.852 213.898 409.575 210.136 410.336C206.373 411.135 197.48 412.962 190.372 414.408C183.265 415.892 170.875 418.441 162.818 420.077C154.761 421.714 145.183 423.692 141.535 424.453C133.515 426.089 133.743 426.051 133.819 425.595C133.857 425.366 135.264 419.202 136.936 411.896C138.646 404.553 140.509 396.486 141.079 393.899C141.649 391.349 142.257 389.256 142.485 389.256C142.675 389.256 159.55 393.404 179.921 398.465ZM223.134 433.281C225.68 444.315 227.694 453.41 227.618 453.524C227.466 453.676 223.704 452.839 203.675 448.235C196.377 446.56 188.852 444.848 186.952 444.392C185.09 443.973 177.564 442.261 170.229 440.587C162.932 438.912 151.72 436.325 145.335 434.879C131.729 431.759 132.413 431.949 132.413 431.34C132.413 430.998 133.781 430.541 136.328 430.047C145.525 428.182 159.512 425.29 168.139 423.502C173.27 422.436 181.631 420.724 186.762 419.659C191.893 418.631 200.862 416.767 206.715 415.549C212.568 414.294 217.623 413.304 217.927 413.266C218.421 413.228 219.447 417.3 223.134 433.281ZM139.71 438.113C143.739 439.065 150.884 440.701 155.597 441.766C160.31 442.832 165.174 443.973 166.429 444.239C167.683 444.544 174.372 446.104 181.251 447.664C193.223 450.404 216.293 455.655 224.73 457.595C228.569 458.47 229.253 458.737 228.911 459.041C228.835 459.117 222.107 460.144 213.936 461.324C193.109 464.292 143.131 471.522 132.071 473.158C126.978 473.881 122.722 474.451 122.684 474.375C122.57 474.299 129.677 443.06 131.083 437.276C131.197 436.82 131.539 436.439 131.843 436.439C132.147 436.439 135.682 437.2 139.71 438.113Z" fill="black"/>
</g>
<defs>
<clipPath id="clip0_172_1683">
<rect width="353" height="487" fill="white" transform="matrix(1 0 0 -1 0 487)"/>
</clipPath>
</defs>
</svg>
